<svg version="1" xmlns="http://www.w3.org/2000/svg" viewBox="0 0 64 64"><path d="M7 8c-1.7 0-3 1.3-3 3v42c0 1.7 1.3 3 3 3h50c1.7 0 3-1.3 3-3V11c0-1.7-1.3-3-3-3H7zm0 2h50c.6 0 1 .4 1 1v42c0 .6-.4 1-1 1H7c-.6 0-1-.4-1-1V20h41c.6 0 1-.4 1-1s-.4-1-1-1H6v-7c0-.6.4-1 1-1zm3 2c-.6 0-1 .4-1 1v2c0 .6.4 1 1 1s1-.4 1-1v-2c0-.6-.4-1-1-1zm5 0c-.6 0-1 .4-1 1v2c0 .6.4 1 1 1s1-.4 1-1v-2c0-.6-.4-1-1-1zm5 0c-.6 0-1 .4-1 1v2c0 .6.4 1 1 1s1-.4 1-1v-2c0-.6-.4-1-1-1zm5 0c-.6 0-1 .4-1 1v2c0 .6.4 1 1 1s1-.4 1-1v-2c0-.6-.4-1-1-1zm5 0c-.6 0-1 .4-1 1v2c0 .6.4 1 1 1s1-.4 1-1v-2c0-.6-.4-1-1-1zm5 0c-.6 0-1 .4-1 1v2c0 .6.4 1 1 1s1-.4 1-1v-2c0-.6-.4-1-1-1zm5 0c-.6 0-1 .4-1 1v2c0 .6.4 1 1 1s1-.4 1-1v-2c0-.6-.4-1-1-1zm5 0c-.6 0-1 .4-1 1v2c0 .6.4 1 1 1s1-.4 1-1v-2c0-.6-.4-1-1-1zm5 0c-.6 0-1 .4-1 1v2c0 .6.4 1 1 1s1-.4 1-1v-2c0-.6-.4-1-1-1zm5 0c-.6 0-1 .4-1 1v2c0 .6.4 1 1 1s1-.4 1-1v-2c0-.6-.4-1-1-1zm-4 6c-.6 0-1 .4-1 1s.4 1 1 1h4c.6 0 1-.4 1-1s-.4-1-1-1h-4zm-16.2 6c-.4.1-.7.3-.8.7l-6 24c-.1.5.2 1.1.7 1.2h.2c.4 0 .9-.3 1-.8l6-24c.1-.5-.2-1.1-.7-1.2-.1.1-.2.1-.4.1zM23 30c-.3 0-.5.1-.7.3l-6 6c-.4.4-.4 1 0 1.4l6 6c.2.2.4.3.7.3s.5-.1.7-.3c.4-.4.4-1 0-1.4L18.4 37l5.3-5.3c.4-.4.4-1 0-1.4-.2-.2-.4-.3-.7-.3zm18 0c-.3 0-.5.1-.7.3-.4.4-.4 1 0 1.4l5.3 5.3-5.3 5.3c-.4.4-.4 1 0 1.4.2.2.4.3.7.3s.5-.1.7-.3l6-6c.4-.4.4-1 0-1.4l-6-6c-.2-.2-.4-.3-.7-.3z" fill="#fff"/></svg>