<svg version="1" xmlns="http://www.w3.org/2000/svg" viewBox="0 0 64 64"><path d="M49.1 2.8c-1.3 0-2.6.5-3.5 1.5L42 7.8c-.8-.8-2.1-.8-2.8 0l-5.7 5.7c-.8.8-.8 2.1 0 2.8v.1L32 17.9 17.9 3.7c-1.1-1.1-3.1-1.1-4.2 0l-9.9 9.9c-1.2 1.2-1.2 3.1 0 4.2L17.9 32 6.5 43.4c-.5.5-.8 1.2-.9 1.9L5 53.7l-.7 4.9c0 .3.1.6.3.9.2.2.4.3.7.3h.1l4.9-.7 8.4-.6c.7-.1 1.4-.4 1.9-.9L32 46.2l14.1 14.1c.6.6 1.4.9 2.1.9s1.5-.3 2.1-.9l9.9-9.9c1.2-1.2 1.2-3.1 0-4.2l-14-14.1 1.5-1.5c.4.3.9.5 1.4.5.5 0 1-.2 1.4-.6l5.7-5.7c.8-.8.8-2 0-2.8l3.5-3.5c.9-.9 1.5-2.2 1.5-3.5 0-1.3-.5-2.6-1.5-3.5l-7.1-7.1c-.9-1-2.2-1.6-3.5-1.6zm-33.4 2c.3 0 .5.1.7.3l.7.7L15 8c-.4.4-.4 1 0 1.4.2.2.4.3.7.3.3 0 .5-.1.7-.3l2.1-2.1 2.1 2.1-3.5 3.5c-.4.4-.4 1 0 1.4.2.2.4.3.7.3.3 0 .5-.1.7-.3l3.5-3.5 2.1 2.1-2 2.1c-.4.4-.4 1 0 1.4.2.2.4.3.7.3s.5-.1.7-.3l2.1-2.1 2.1 2.1-3.5 3.6c-.4.4-.4 1 0 1.4.2.2.4.3.7.3s.5-.1.7-.3l3.5-3.5 1.5 1.5-11.3 11.2L5.1 16.4c-.4-.4-.4-1 0-1.4L15 5.1c.2-.2.5-.3.7-.3zm33.4.1c.8 0 1.6.3 2.1.8l7.1 7.1c.6.6.9 1.3.9 2.1s-.3 1.6-.9 2.1l-3.5 3.5L43.4 9.2 47 5.7c.5-.6 1.3-.8 2.1-.8zm-8.5 4.3l7.1 7.1 6.4 6.4.7.7-1.4 1.4c-.4-.4-1-.4-1.4 0l-1.4 1.4c-.4.4-.4 1 0 1.4L49.1 29 35 14.9l1.4-1.4c.2.2.4.3.7.3s.5-.1.7-.3l1.4-1.4c.4-.4.4-1 0-1.4l1.4-1.5zm1.4 4.7c-.3 0-.5.1-.7.3l-1.4 1.4c-.4.4-.4 1 0 1.4.2.2.5.3.7.3.3 0 .5-.1.7-.3l1.4-1.4c.4-.4.4-1 0-1.4-.2-.2-.4-.3-.7-.3zm3.6 3.5c-.3 0-.5.1-.7.3l-1.4 1.4c-.4.4-.4 1 0 1.4.2.2.5.3.7.3.3 0 .5-.1.7-.3l1.4-1.4c.4-.4.4-1 0-1.4-.2-.2-.5-.3-.7-.3zm-10.6.4l11.3 11.3L20 55.4l-1-4.8L35.7 34c.4-.4.4-1 0-1.4-.4-.4-1-.4-1.4 0L17.7 49.2l-2.4-.5-.5-2.4 13.8-13.8c.4-.4.4-1 0-1.4-.4-.4-1-.4-1.4 0L13.4 44.9 8.7 44 35 17.8zM49.1 21c-.3 0-.5.1-.7.3L47 22.7c-.4.4-.4 1 0 1.4.2.2.4.3.7.3s.5-.1.7-.3l1.4-1.4c.4-.4.4-1 0-1.4-.2-.2-.5-.3-.7-.3zm-15.6 4.2c-.3 0-.5.1-.7.3L30 28.3c-.4.4-.4 1 0 1.4.2.2.4.3.7.3.3 0 .5-.1.7-.3l2.8-2.8c.4-.4.4-1 0-1.4-.2-.2-.4-.3-.7-.3zm11.3 8.3l.7.7-2.1 2.1c-.4.4-.4 1 0 1.4.2.2.5.3.7.3.3 0 .5-.1.7-.3l2.1-2.1 2.1 2.1-3.5 3.5c-.4.4-.4 1 0 1.4.2.2.4.3.7.3.3 0 .5-.1.7-.3l3.5-3.5 2.1 2.1-2.1 2.1c-.4.4-.4 1 0 1.4.2.2.4.3.7.3.3 0 .5-.1.7-.3l2.1-2.1 2.1 2.1-3.5 3.5c-.4.4-.4 1 0 1.4.2.2.5.3.7.3.3 0 .5-.1.7-.3l3.5-3.5 1.4 1.4c.4.4.4 1 0 1.4l-9.8 10c-.4.4-1 .4-1.4 0L33.4 44.8l11.4-11.3zM7.6 45.8l5.3 1.1.6 2.9c.1.4.4.7.8.8l2.9.6 1.1 5.3-7.7.5L7 53.4l.6-7.6z" fill="#fff"/></svg>