<?xml version="1.0" encoding="utf-8"?>
<!-- Generator: Adobe Illustrator 18.0.0, SVG Export Plug-In . SVG Version: 6.00 Build 0)  -->
<!DOCTYPE svg PUBLIC "-//W3C//DTD SVG 1.0//EN" "http://www.w3.org/TR/2001/REC-SVG-20010904/DTD/svg10.dtd">
<svg version="1.0" id="Layer_1" xmlns="http://www.w3.org/2000/svg" xmlns:xlink="http://www.w3.org/1999/xlink" x="0px" y="0px"
	 viewBox="0 0 64 64" style="enable-background:new 0 0 64 64;" xml:space="preserve">
<g id="surface1">
	<path style="fill:#FFFFFF;" d="M7,8c-1.7,0-3,1.3-3,3v42c0,1.7,1.3,3,3,3h50c1.7,0,3-1.3,3-3V11c0-1.7-1.3-3-3-3H7z M7,10h50
		c0.6,0,1,0.4,1,1v42c0,0.6-0.4,1-1,1H7c-0.6,0-1-0.4-1-1V20h41c0.6,0,1-0.4,1-1s-0.4-1-1-1H6v-7C6,10.4,6.4,10,7,10z M10,12
		c-0.6,0-1,0.4-1,1v2c0,0.6,0.4,1,1,1c0.6,0,1-0.4,1-1v-2C11,12.4,10.6,12,10,12z M15,12c-0.6,0-1,0.4-1,1v2c0,0.6,0.4,1,1,1
		c0.6,0,1-0.4,1-1v-2C16,12.4,15.6,12,15,12z M20,12c-0.6,0-1,0.4-1,1v2c0,0.6,0.4,1,1,1s1-0.4,1-1v-2C21,12.4,20.6,12,20,12z
		 M25,12c-0.6,0-1,0.4-1,1v2c0,0.6,0.4,1,1,1s1-0.4,1-1v-2C26,12.4,25.6,12,25,12z M30,12c-0.6,0-1,0.4-1,1v2c0,0.6,0.4,1,1,1
		s1-0.4,1-1v-2C31,12.4,30.6,12,30,12z M35,12c-0.6,0-1,0.4-1,1v2c0,0.6,0.4,1,1,1s1-0.4,1-1v-2C36,12.4,35.6,12,35,12z M40,12
		c-0.6,0-1,0.4-1,1v2c0,0.6,0.4,1,1,1s1-0.4,1-1v-2C41,12.4,40.6,12,40,12z M45,12c-0.6,0-1,0.4-1,1v2c0,0.6,0.4,1,1,1s1-0.4,1-1v-2
		C46,12.4,45.6,12,45,12z M50,12c-0.6,0-1,0.4-1,1v2c0,0.6,0.4,1,1,1s1-0.4,1-1v-2C51,12.4,50.6,12,50,12z M55,12c-0.6,0-1,0.4-1,1
		v2c0,0.6,0.4,1,1,1s1-0.4,1-1v-2C56,12.4,55.6,12,55,12z M51,18c-0.6,0-1,0.4-1,1s0.4,1,1,1h4c0.6,0,1-0.4,1-1s-0.4-1-1-1H51z
		 M34.8,24c-0.4,0.1-0.7,0.3-0.8,0.7l-6,24c-0.1,0.5,0.2,1.1,0.7,1.2c0.1,0,0.2,0,0.2,0c0.4,0,0.9-0.3,1-0.8l6-24
		c0.1-0.5-0.2-1.1-0.7-1.2C35.1,24,35,24,34.8,24z M23,30c-0.3,0-0.5,0.1-0.7,0.3l-6,6c-0.4,0.4-0.4,1,0,1.4l6,6
		c0.2,0.2,0.4,0.3,0.7,0.3s0.5-0.1,0.7-0.3c0.4-0.4,0.4-1,0-1.4L18.4,37l5.3-5.3c0.4-0.4,0.4-1,0-1.4C23.5,30.1,23.3,30,23,30z
		 M41,30c-0.3,0-0.5,0.1-0.7,0.3c-0.4,0.4-0.4,1,0,1.4l5.3,5.3l-5.3,5.3c-0.4,0.4-0.4,1,0,1.4c0.2,0.2,0.4,0.3,0.7,0.3
		s0.5-0.1,0.7-0.3l6-6c0.4-0.4,0.4-1,0-1.4l-6-6C41.5,30.1,41.3,30,41,30z"/>
</g>
</svg>
