<?xml version="1.0" encoding="utf-8"?>
<!-- Generator: Adobe Illustrator 18.0.0, SVG Export Plug-In . SVG Version: 6.00 Build 0)  -->
<!DOCTYPE svg PUBLIC "-//W3C//DTD SVG 1.0//EN" "http://www.w3.org/TR/2001/REC-SVG-20010904/DTD/svg10.dtd">
<svg version="1.0" id="Layer_1" xmlns="http://www.w3.org/2000/svg" xmlns:xlink="http://www.w3.org/1999/xlink" x="0px" y="0px"
	 viewBox="0 0 64 64" style="enable-background:new 0 0 64 64;" xml:space="preserve">
<g id="surface1">
	<path style="fill:#FFFFFF;" d="M49.1,2.8c-1.3,0-2.6,0.5-3.5,1.5L42,7.8c-0.8-0.8-2.1-0.8-2.8,0l-5.7,5.7c-0.8,0.8-0.8,2.1,0,2.8
		l0,0.1L32,17.9L17.9,3.7c-1.1-1.1-3.1-1.1-4.2,0l-9.9,9.9c-1.2,1.2-1.2,3.1,0,4.2L17.9,32L6.5,43.4c-0.5,0.5-0.8,1.2-0.9,1.9
		L5,53.7l-0.7,4.9c0,0.3,0.1,0.6,0.3,0.9c0.2,0.2,0.4,0.3,0.7,0.3c0.1,0,0.1,0,0.1,0l4.9-0.7l8.4-0.6c0.7-0.1,1.4-0.4,1.9-0.9
		L32,46.2l14.1,14.1c0.6,0.6,1.4,0.9,2.1,0.9s1.5-0.3,2.1-0.9l9.9-9.9c1.2-1.2,1.2-3.1,0-4.2L46.2,32.1l1.5-1.5
		c0.4,0.3,0.9,0.5,1.4,0.5c0.5,0,1-0.2,1.4-0.6l5.7-5.7c0.8-0.8,0.8-2,0-2.8l3.5-3.5c0.9-0.9,1.5-2.2,1.5-3.5c0-1.3-0.5-2.6-1.5-3.5
		l-7.1-7.1C51.7,3.4,50.4,2.8,49.1,2.8z M15.7,4.8c0.3,0,0.5,0.1,0.7,0.3l0.7,0.7L15,8c-0.4,0.4-0.4,1,0,1.4
		c0.2,0.2,0.4,0.3,0.7,0.3c0.3,0,0.5-0.1,0.7-0.3l2.1-2.1l2.1,2.1l-3.5,3.5c-0.4,0.4-0.4,1,0,1.4c0.2,0.2,0.4,0.3,0.7,0.3
		c0.3,0,0.5-0.1,0.7-0.3l3.5-3.5l2.1,2.1L22.1,15c-0.4,0.4-0.4,1,0,1.4c0.2,0.2,0.4,0.3,0.7,0.3s0.5-0.1,0.7-0.3l2.1-2.1l2.1,2.1
		L24.2,20c-0.4,0.4-0.4,1,0,1.4c0.2,0.2,0.4,0.3,0.7,0.3s0.5-0.1,0.7-0.3l3.5-3.5l1.5,1.5L19.3,30.6L5.1,16.4c-0.4-0.4-0.4-1,0-1.4
		L15,5.1C15.2,4.9,15.5,4.8,15.7,4.8z M49.1,4.9c0.8,0,1.6,0.3,2.1,0.8l7.1,7.1c0.6,0.6,0.9,1.3,0.9,2.1c0,0.8-0.3,1.6-0.9,2.1
		l-3.5,3.5L43.4,9.2L47,5.7C47.5,5.1,48.3,4.9,49.1,4.9z M40.6,9.2l7.1,7.1l6.4,6.4l0.7,0.7l-1.4,1.4c-0.4-0.4-1-0.4-1.4,0l-1.4,1.4
		c-0.4,0.4-0.4,1,0,1.4L49.1,29h0L35,14.9l1.4-1.4c0.2,0.2,0.4,0.3,0.7,0.3s0.5-0.1,0.7-0.3l1.4-1.4c0.4-0.4,0.4-1,0-1.4L40.6,9.2z
		 M42,13.9c-0.3,0-0.5,0.1-0.7,0.3l-1.4,1.4c-0.4,0.4-0.4,1,0,1.4c0.2,0.2,0.5,0.3,0.7,0.3c0.3,0,0.5-0.1,0.7-0.3l1.4-1.4
		c0.4-0.4,0.4-1,0-1.4C42.5,14,42.3,13.9,42,13.9z M45.6,17.4c-0.3,0-0.5,0.1-0.7,0.3l-1.4,1.4c-0.4,0.4-0.4,1,0,1.4
		c0.2,0.2,0.5,0.3,0.7,0.3c0.3,0,0.5-0.1,0.7-0.3l1.4-1.4c0.4-0.4,0.4-1,0-1.4C46.1,17.5,45.8,17.4,45.6,17.4z M35,17.8l11.3,11.3
		L20,55.4l-1-4.8L35.7,34c0.4-0.4,0.4-1,0-1.4c-0.4-0.4-1-0.4-1.4,0L17.7,49.2l-2.4-0.5l-0.5-2.4l13.8-13.8c0.4-0.4,0.4-1,0-1.4
		c-0.4-0.4-1-0.4-1.4,0L13.4,44.9L8.7,44L35,17.8z M49.1,21c-0.3,0-0.5,0.1-0.7,0.3L47,22.7c-0.4,0.4-0.4,1,0,1.4
		c0.2,0.2,0.4,0.3,0.7,0.3s0.5-0.1,0.7-0.3l1.4-1.4c0.4-0.4,0.4-1,0-1.4C49.6,21.1,49.3,21,49.1,21z M33.5,25.2
		c-0.3,0-0.5,0.1-0.7,0.3L30,28.3c-0.4,0.4-0.4,1,0,1.4c0.2,0.2,0.4,0.3,0.7,0.3c0.3,0,0.5-0.1,0.7-0.3l2.8-2.8c0.4-0.4,0.4-1,0-1.4
		C34,25.3,33.8,25.2,33.5,25.2z M44.8,33.5l0.7,0.7l-2.1,2.1c-0.4,0.4-0.4,1,0,1.4c0.2,0.2,0.5,0.3,0.7,0.3c0.3,0,0.5-0.1,0.7-0.3
		l2.1-2.1l2.1,2.1l-3.5,3.5c-0.4,0.4-0.4,1,0,1.4c0.2,0.2,0.4,0.3,0.7,0.3c0.3,0,0.5-0.1,0.7-0.3l3.5-3.5l2.1,2.1l-2.1,2.1
		c-0.4,0.4-0.4,1,0,1.4c0.2,0.2,0.4,0.3,0.7,0.3c0.3,0,0.5-0.1,0.7-0.3l2.1-2.1l2.1,2.1l-3.5,3.5c-0.4,0.4-0.4,1,0,1.4
		c0.2,0.2,0.5,0.3,0.7,0.3c0.3,0,0.5-0.1,0.7-0.3l3.5-3.5l1.4,1.4c0.4,0.4,0.4,1,0,1.4L49,58.9c-0.4,0.4-1,0.4-1.4,0L33.4,44.8
		L44.8,33.5z M7.6,45.8l5.3,1.1l0.6,2.9c0.1,0.4,0.4,0.7,0.8,0.8l2.9,0.6l1.1,5.3L10.6,57L7,53.4L7.6,45.8z"/>
</g>
</svg>
