<?xml version="1.0" standalone="no"?>
<!DOCTYPE svg PUBLIC "-//W3C//DTD SVG 20010904//EN"
 "http://www.w3.org/TR/2001/REC-SVG-20010904/DTD/svg10.dtd">
<svg version="1.0" xmlns="http://www.w3.org/2000/svg"
 width="260.000000pt" height="260.000000pt" viewBox="0 0 260.000000 260.000000"
 preserveAspectRatio="xMidYMid meet">
<metadata>
Created by potrace 1.11, written by Peter Selinger 2001-2013
</metadata>
<g transform="translate(0.000000,260.000000) scale(0.100000,-0.100000)"
fill="#000000" stroke="none">
<path d="M0 1300 l0 -1300 1300 0 1300 0 0 1300 0 1300 -1300 0 -1300 0 0
-1300z m953 481 c73 -19 157 -55 157 -68 0 -3 -10 -32 -21 -64 l-21 -58 -52
29 c-113 64 -273 78 -369 31 -52 -25 -77 -58 -84 -111 -12 -86 48 -128 259
-183 157 -42 188 -53 244 -95 57 -41 84 -101 84 -183 -1 -175 -143 -279 -378
-279 -130 0 -283 45 -357 105 -19 15 -19 16 8 70 l27 55 42 -29 c101 -67 261
-97 383 -71 81 17 135 68 135 128 0 93 -39 122 -238 174 -177 47 -237 73 -289
125 -91 91 -81 261 22 351 19 18 49 39 65 47 91 47 255 58 383 26z m547 -263
l0 -273 108 110 c59 61 178 183 264 273 l156 163 80 -3 79 -3 -203 -215 c-111
-118 -203 -220 -203 -227 -1 -6 96 -128 215 -270 l217 -258 -77 -3 c-51 -2
-83 1 -93 10 -8 6 -94 104 -191 215 l-176 204 -88 -88 -88 -88 0 -127 0 -128
-70 0 -70 0 0 490 0 490 70 0 70 0 0 -272z"/>
</g>
</svg>
